{"title":"The.Reckoning.2014.480p.BRRip.XviD.AC3-N3kr4","uid":10985570,"size":1535669488,"categoryP":"video","categoryS":"hd___movies","magnet":"?xt=urn:btih:7ced4cbbb18a369f70b76af9241796ae9cb098fa&amp;dn=The.Reckoning.2014.480p.BRRip.XviD.AC3-N3kr4&amp;tr=udp%3A%2F%2Ftracker.openbittorrent.com%3A80&amp;tr=udp%3A%2F%2Fopen.demonii.com%3A1337&amp;tr=udp%3A%2F%2Ftracker.coppersurfer.tk%3A6969&amp;tr=udp%3A%2F%2Fexodus.desync.com%3A6969","seeders":1,"leechers":0,"uploader":"Falcon.G13","files":2,"time":1409875781,"description":"The Reckoning (I) (2014)\n 86 min - Crime | Mystery | Thriller - 21 August 2014 (Australia)\n6.1 Your rating: -/10 Ratings: 6.1/10 from 713 users \nReviews: 6 user | 10 critic\nAfter his partner is murdered, a detective must track down two teenage runaways whose video footage contains the identity of the killer.\n &lt;a href=&quot;\nhttp://i.imgur.com/6Se2Jgs.jpg&quot; rel=&quot;nofollow&quot; target=&quot;_NEW&quot;&gt;\nhttp://i.imgur.com/6Se2Jgs.jpg&lt;/a&gt; &lt;a href=&quot;\nhttp://i.imgur.com/HXkAINC.jpg&quot; rel=&quot;nofollow&quot; target=&quot;_NEW&quot;&gt;\nhttp://i.imgur.com/HXkAINC.jpg&lt;/a&gt; &lt;a href=&quot;\nhttp://i.imgur.com/XOljGji.jpg&quot; rel=&quot;nofollow&quot; target=&quot;_NEW&quot;&gt;\nhttp://i.imgur.com/XOljGji.jpg&lt;/a&gt; &lt;a href=&quot;\nhttp://i.imgur.com/U2sweVK.jpg&quot; rel=&quot;nofollow&quot; target=&quot;_NEW&quot;&gt;\nhttp://i.imgur.com/U2sweVK.jpg&lt;/a&gt; &lt;a href=&quot;\nhttp://i.imgur.com/zOpIaqL.jpg&quot; rel=&quot;nofollow&quot; target=&quot;_NEW&quot;&gt;\nhttp://i.imgur.com/zOpIaqL.jpg&lt;/a&gt; &lt;a href=&quot;\nhttp://i.imgur.com/6j3Y6u8.jpg&quot; rel=&quot;nofollow&quot; target=&quot;_NEW&quot;&gt;\nhttp://i.imgur.com/6j3Y6u8.jpg&lt;/a&gt;\n\nGeneral\nComplete name : The.Reckoning.2014.480p.BRRip.XviD.AC3-N3kr4.avi\nFormat : AVI\nFormat/Info : Audio Video Interleave\nFormat profile : OpenDML\nFile size : 1.43 GiB\nDuration : 1h 25mn\nOverall bit rate : 2 406 Kbps\nWriting application : Lavf55.7.100\n\nVideo\nID : 0\nFormat : MPEG-4 Visual\nFormat profile : Advanced Simple@L1\nFormat settings, BVOP : No\nFormat settings, QPel : No\nFormat settings, GMC : No warppoints\nFormat settings, Matrix : Default (H.263)\nCodec ID : XVID\nCodec ID/Hint : XviD\nDuration : 1h 25mn\nBit rate : 1 755 Kbps\nWidth : 720 pixels\nHeight : 304 pixels\nDisplay aspect ratio : 2.35:1\nFrame rate : 24.000 fps\nColor space : YUV\nChroma subsampling : 4:2:0\nBit depth : 8 bits\nScan type : Progressive\nCompression mode : Lossy\nBits/(Pixel*Frame) : 0.334\nStream size : 1.04 GiB (73%)\nWriting library : Lavc55.12.100\n\nAudio\nID : 1\nFormat : AC-3\nFormat/Info : Audio Coding 3\nMode extension : CM (complete main)\nFormat settings, Endianness : Big\nCodec ID : 2000\nDuration : 1h 25mn\nBit rate mode : Constant\nBit rate : 640 Kbps\nChannel(s) : 6 channels\nChannel positions : Front: L C R, Side: L R, LFE\nSampling rate : 48.0 KHz\nBit depth : 16 bits\nCompression mode : Lossy\nStream size : 389 MiB (27%)\nAlignment : Aligned on interleaves\nInterleave, duration : 32 ms (0.77 video frame)\nInterleave, preload duration : 32 ms","torrent":{"xt":"urn:btih:7ced4cbbb18a369f70b76af9241796ae9cb098fa","amp;dn":"The.Reckoning.2014.480p.BRRip.XviD.AC3-N3kr4","amp;tr":["udp%3A%2F%2Ftracker.openbittorrent.com%3A80","udp%3A%2F%2Fopen.demonii.com%3A1337","udp%3A%2F%2Ftracker.coppersurfer.tk%3A6969","udp%3A%2F%2Fexodus.desync.com%3A6969"],"infoHash":"7ced4cbbb18a369f70b76af9241796ae9cb098fa","infoHashBuffer":{"type":"Buffer","data":[124,237,76,187,177,138,54,159,112,183,106,249,36,23,150,174,156,176,152,250]},"announce":[],"urlList":[]}}